<svg width="25" height="25" viewBox="0 0 25 25" fill="none" xmlns="http://www.w3.org/2000/svg">
<path d="M12.1734 7.7221C11.2974 7.7221 9.94138 6.7261 8.51338 6.7621C6.62938 6.7861 4.90138 7.85409 3.92938 9.54609C1.97338 12.9421 3.42538 17.9581 5.33338 20.7181C6.26938 22.0621 7.37338 23.5741 8.83738 23.5261C10.2414 23.4661 10.7694 22.6141 12.4734 22.6141C14.1654 22.6141 14.6454 23.5261 16.1334 23.4901C17.6454 23.4661 18.6054 22.1221 19.5294 20.7661C20.5974 19.2061 21.0414 17.6941 21.0654 17.6101C21.0294 17.5981 18.1254 16.4821 18.0894 13.1221C18.0654 10.3141 20.3814 8.9701 20.4894 8.9101C19.1694 6.9781 17.1414 6.7621 16.4334 6.7141C14.5854 6.5701 13.0374 7.7221 12.1734 7.7221ZM15.2934 4.8901C16.0734 3.9541 16.5894 2.6461 16.4454 1.3501C15.3294 1.3981 13.9854 2.0941 13.1814 3.0301C12.4614 3.8581 11.8374 5.1901 12.0054 6.4621C13.2414 6.5581 14.5134 5.8261 15.2934 4.8901Z" fill="white"/>
</svg>
