<svg width="60" height="24" viewBox="0 0 60 24" fill="none" xmlns="http://www.w3.org/2000/svg">
<path d="M11.6734 7.22198C10.7974 7.22198 9.44138 6.22598 8.01338 6.26198C6.12938 6.28598 4.40138 7.35397 3.42938 9.04597C1.47338 12.442 2.92538 17.458 4.83338 20.218C5.76938 21.562 6.87338 23.074 8.33738 23.026C9.74138 22.966 10.2694 22.114 11.9734 22.114C13.6654 22.114 14.1454 23.026 15.6334 22.99C17.1454 22.966 18.1054 21.622 19.0294 20.266C20.0974 18.706 20.5414 17.194 20.5654 17.11C20.5294 17.098 17.6254 15.982 17.5894 12.622C17.5654 9.81397 19.8814 8.46998 19.9894 8.40998C18.6694 6.47798 16.6414 6.26198 15.9334 6.21398C14.0854 6.06998 12.5374 7.22198 11.6734 7.22198ZM14.7934 4.38998C15.5734 3.45398 16.0894 2.14598 15.9454 0.849976C14.8294 0.897976 13.4854 1.59398 12.6814 2.52998C11.9614 3.35798 11.3374 4.68998 11.5054 5.96198C12.7414 6.05798 14.0134 5.32598 14.7934 4.38998Z" fill="white"/>
<path d="M30 4V20" stroke="white" stroke-width="0.5"/>
<path d="M39.6097 1.81396L49.793 12L39.6108 22.1864C39.4178 22.1048 39.2487 21.962 39.1355 21.7667C39.0474 21.6144 39.001 21.4416 39.001 21.2656V2.73453C39.001 2.32109 39.2519 1.96625 39.6097 1.81396ZM50.5 12.707L52.802 15.009L41.865 21.342L50.5 12.707ZM53.699 9.50896L56.5061 11.1347C56.9841 11.4114 57.1473 12.0232 56.8705 12.5011C56.783 12.6523 56.6574 12.778 56.5061 12.8655L53.698 14.491L51.207 12L53.699 9.50896ZM41.865 2.65796L52.803 8.98996L50.5 11.293L41.865 2.65796Z" fill="white"/>
</svg>
