<svg width="866" height="86" viewBox="0 0 866 86" fill="none" xmlns="http://www.w3.org/2000/svg">
<path d="M0 67.5745H86V29.3153H38.4026V18.4255H0V67.5745ZM7.24192 26.0545H31.0962V33.1996C24.8612 40.6888 20.9195 49.3318 20.5325 59.7306H12.4592C12.7817 50.7687 13.7242 41.9788 20.64 34.6688L20.7583 34.5505H7.24192V26.0545ZM37.5211 30.5444H84.8748V66.8901H37.5175L37.5211 30.5444ZM59.0569 34.891V59.512H64.3674V34.8945L59.0569 34.891ZM68.929 35.045V59.813H74.7197V51.1414H78.4069C79.9478 51.1378 81.1087 50.1022 81.8792 48.5757C83.4092 45.537 83.4164 40.4881 81.7932 37.496C80.9798 35.9946 79.7471 34.9985 78.0916 35.045H68.929ZM40.5347 35.0522V40.7712H48.4789L40.2229 54.1585V59.6769H55.5847V54.1084H45.9168L55.9 40.1011V35.0486L40.5347 35.0522ZM74.4043 40.4702H76.5364C77.1241 40.4487 77.5648 40.7605 77.8658 41.2478C78.475 42.226 78.4822 43.8851 77.8802 44.7953C77.7473 45.0233 77.5484 45.2056 77.3098 45.3182C77.0712 45.4308 76.804 45.4684 76.5436 45.426L74.5728 45.5944L74.4043 40.4702Z" fill="#333333"/>
<g clip-path="url(#clip0_161_240)">
<path d="M212.058 42.9997C212.048 45.9618 210.867 48.7999 208.772 50.8945C206.678 52.989 203.84 54.17 200.877 54.1798H196.577V49.2654H200.877C201.702 49.2674 202.518 49.1068 203.28 48.7928C204.042 48.4788 204.734 48.0176 205.318 47.4355C205.901 46.8535 206.364 46.1621 206.68 45.4009C206.996 44.6398 207.158 43.8238 207.158 42.9997C207.158 42.1756 206.996 41.3596 206.68 40.5984C206.364 39.8372 205.901 39.1458 205.318 38.5638C204.734 37.9818 204.042 37.5205 203.28 37.2065C202.518 36.8925 201.702 36.7319 200.877 36.7339H196.577V31.8196H200.877C203.84 31.8293 206.678 33.0103 208.772 35.1049C210.867 37.1994 212.048 40.0375 212.058 42.9997ZM188.223 31.8196V40.9111H180.483L177.657 45.8254H193.137V31.8196H188.223ZM244.001 38.8225C244.001 42.8955 242.383 46.8017 239.503 49.6817C236.623 52.5618 232.716 54.1798 228.643 54.1798V62.5341H215.375V56.0226C213.549 58.0949 211.298 59.7493 208.775 60.8729C206.252 61.9966 203.516 62.5632 200.755 62.5341H188.223V54.1797H178.394L173.48 62.5341H158L180.729 23.4652H200.877C203.631 23.4885 206.35 24.0787 208.865 25.199C211.381 26.3192 213.638 27.9456 215.498 29.9767V23.4652H228.766C232.82 23.4912 236.698 25.1214 239.553 27.9994C242.408 30.8773 244.007 34.7687 244.001 38.8225ZM200.877 57.6198C203.653 57.6266 206.374 56.8451 208.723 55.3661C211.072 53.8871 212.953 51.7715 214.146 49.2654H220.412V57.6198H223.852V49.2654H228.766C230.138 49.267 231.497 48.998 232.765 48.4738C234.032 47.9496 235.184 47.1804 236.154 46.2104C237.124 45.2403 237.893 44.0885 238.418 42.8207C238.942 41.553 239.211 40.1943 239.209 38.8225C239.183 36.0396 238.058 33.3799 236.079 31.4235C234.099 29.4672 231.426 28.3729 228.643 28.3795H220.289V40.9111H215.375C214.848 37.4375 213.098 34.2663 210.44 31.9687C207.782 29.6712 204.391 28.3983 200.877 28.3795H183.677L166.6 57.6198H170.654L175.569 49.2654H193.137V57.6198H200.877ZM228.643 31.8196H223.729V36.7339H228.643C228.918 36.7323 229.191 36.7852 229.445 36.8896C229.699 36.9939 229.93 37.1477 230.124 37.342C230.318 37.5363 230.472 37.7672 230.576 38.0213C230.681 38.2754 230.734 38.5478 230.732 38.8225C230.717 39.3715 230.492 39.8938 230.103 40.2822C229.715 40.6706 229.192 40.8956 228.643 40.9111H223.729V45.8254H228.643C230.501 45.8254 232.282 45.0876 233.595 43.7743C234.909 42.461 235.646 40.6798 235.646 38.8225C235.627 36.9711 234.883 35.2011 233.574 33.8919C232.265 32.5827 230.495 31.8388 228.643 31.8196ZM235.524 60.077C235.524 60.4657 235.408 60.8458 235.192 61.1691C234.976 61.4923 234.669 61.7443 234.31 61.8931C233.951 62.0418 233.556 62.0808 233.174 62.0049C232.793 61.9291 232.443 61.7419 232.168 61.4669C231.893 61.192 231.706 60.8418 231.63 60.4605C231.554 60.0791 231.593 59.6839 231.742 59.3247C231.89 58.9655 232.142 58.6585 232.466 58.4425C232.789 58.2265 233.169 58.1112 233.558 58.1112C233.817 58.1079 234.074 58.1565 234.314 58.2541C234.554 58.3517 234.772 58.4964 234.955 58.6796C235.138 58.8628 235.283 59.0808 235.381 59.3208C235.478 59.5608 235.527 59.8179 235.524 60.077ZM236.015 60.077C236.015 59.591 235.871 59.1159 235.601 58.7118C235.331 58.3077 234.947 57.9928 234.498 57.8068C234.049 57.6209 233.555 57.5722 233.078 57.667C232.602 57.7618 232.164 57.9958 231.82 58.3395C231.477 58.6831 231.243 59.1209 231.148 59.5976C231.053 60.0742 231.102 60.5683 231.288 61.0173C231.474 61.4663 231.789 61.85 232.193 62.12C232.597 62.39 233.072 62.5341 233.558 62.5341C234.209 62.5341 234.834 62.2752 235.295 61.8144C235.756 61.3536 236.015 60.7286 236.015 60.077ZM233.681 58.9712C233.811 58.9712 233.936 59.023 234.028 59.1152C234.12 59.2073 234.172 59.3323 234.172 59.4627C234.172 59.593 234.12 59.718 234.028 59.8102C233.936 59.9023 233.811 59.9541 233.681 59.9541H233.189V58.9712H233.681ZM234.295 58.8484C234.127 58.6942 233.909 58.6068 233.681 58.6027H232.698V61.5512H233.066V60.4455H233.558L234.172 61.5512H234.663L233.926 60.3227C234.049 60.3227 234.172 60.1998 234.295 60.077C234.393 59.9328 234.436 59.7587 234.418 59.5855C234.47 59.4639 234.487 59.3296 234.465 59.1988C234.443 59.068 234.384 58.9463 234.295 58.8484Z" fill="#333333"/>
</g>
<path d="M316 24.8146V60.9561H329.165V59.1286H317.899V26.6421H334.117V24.8146H316ZM383.883 24.8146V26.6457H400.101V59.125H388.835V60.9561H402V24.8146H383.883ZM356.194 21.6218V26.8284H361.702V25.456H357.961V24.7608H361.042V23.5568H357.961V22.9942H361.702V21.6218H357.961H356.194ZM362.519 21.6218V26.8284H367.5V25.2983H364.285V21.6218H362.519ZM368.077 21.6218V26.8284H369.843V21.6218H368.077ZM370.399 21.6218V23.1519H372.394V26.8284H374.161V23.1519H376.161V21.6218H372.394H370.399ZM376.723 21.6218V26.8284H382.231V25.456H378.493V24.7608H381.575V23.5568H378.493V22.9942H382.234V21.6218H378.493H376.723ZM357.029 29.4729L343.466 29.4944L343.52 41.9142L349.146 56.2834H367.578L365.045 49.9409H351.26V35.8333H359.573L357.029 29.4729ZM352.414 39.7284V46.0709H363.547L360.996 39.7284H352.414ZM338.45 21.6218L335.769 26.8284H337.697L338.134 25.8322H340.639L341.123 26.8284H343.043L340.345 21.6218H338.45ZM343.334 21.6218V26.8284H348.314V25.2983H345.1V21.6218H343.334ZM348.888 21.6218V26.8284H353.869V25.2983H350.658V21.6218H348.888ZM339.392 23.2128L340.062 24.6139H338.711L339.392 23.2128ZM397.765 29.412L390.067 29.4227L385.165 41.8569L381.804 29.4335L374.129 29.4442L370.832 41.7817L365.977 29.455L358.176 29.4693L368.804 56.2834H374.656L378.017 43.8779L381.364 56.2834H387.287L397.765 29.412ZM337.407 29.5016L330.796 29.5123L320.239 56.287H328.076L329.301 53.062H337.661L335.203 46.8019H331.781L334.056 40.807L340.17 56.287H347.945L337.407 29.5016ZM384.316 58.867C382.89 58.8742 381.94 59.3687 381.432 59.9993C381.082 60.472 380.895 61.045 380.899 61.6327C380.902 62.2204 381.095 62.7913 381.45 63.2602C383.61 65.4997 387.09 63.7403 387.298 63.2888V61.06H384.101V62.2927H385.552V62.6008C385.144 63.1455 383.41 63.1132 382.965 62.4109C382.521 61.6047 382.829 61.0707 382.994 60.8199C383.987 59.7449 385.692 60.5977 385.803 60.8342L387.111 59.7843C386.299 59.1919 385.321 58.8709 384.316 58.867ZM356.09 58.9028C355.768 58.9068 355.446 58.9307 355.126 58.9745C354.076 59.1895 353.421 59.7162 353.274 60.2143C352.815 61.9737 355.32 62.2461 355.32 62.2461C357.552 62.3536 357.366 62.5972 357.37 62.6868C357.137 63.1742 355.865 62.9986 355.474 62.9377C354.682 62.7872 353.933 62.2712 353.933 62.2712L352.962 63.3462C355.685 65.0733 357.907 64.156 358.265 63.9553C359.34 63.3426 359.305 62.221 358.953 61.7301C358.681 61.3968 357.853 60.9883 357.036 60.8987C356.305 60.7267 354.872 60.8593 355.037 60.3935C355.252 59.9635 357.481 60.2502 358.065 60.7339L358.925 59.6768C358.09 59.0748 357.072 58.8885 356.09 58.9028ZM330.702 59.0712L332.508 64.0772H334.318L335.314 61.017L336.267 64.0772H338.08L339.879 59.0712H338.098L337.174 62.1744L336.11 59.0712H334.519L333.465 62.2031L332.516 59.0712H330.702ZM340.352 59.0712V64.0772H342.151V62.6725H343.262L344.423 64.0772H346.541L345.165 62.4718C347.315 61.6333 346.362 59.1501 344.326 59.0677H344.111L340.352 59.0712ZM347.125 59.0712V64.0772H352.632V62.9018H348.895V62.2031H351.977V61.0027H348.895V60.4365H352.636V59.0712H347.125ZM359.405 59.0712V60.5512H361.401V64.0772H363.171V60.5512H365.167V59.0712H359.405ZM365.704 59.0712V64.0772H370.685V62.7083H367.471V59.0677L365.704 59.0712ZM371.302 59.0712V64.0772H373.068V59.0712H371.302ZM374.046 59.0712V64.0772H375.813V61.1962L378.579 64.0772H380.249V59.0748H378.483V61.8017L375.917 59.0748L374.046 59.0712ZM342.14 60.4042H344.043C344.724 60.3935 344.72 61.4291 344.043 61.4506H342.144L342.14 60.4042Z" fill="#333333"/>
<g clip-path="url(#clip1_161_240)">
<path d="M512.019 10.5844C511.781 10.5828 511.546 10.6425 511.338 10.7576C511.134 10.8722 510.963 11.0385 510.844 11.2399L503.644 23.4743C503.409 23.8735 503.285 24.3284 503.285 24.7916C503.285 25.254 503.408 25.7087 503.644 26.109L519.323 52.7479C519.563 53.1507 519.904 53.4834 520.312 53.7128C520.722 53.9444 521.184 54.0659 521.655 54.0652H536.06C536.296 54.0642 536.528 54.0025 536.734 53.886C536.936 53.7709 537.105 53.6044 537.222 53.4034C537.342 53.2053 537.406 52.979 537.408 52.7479C537.408 52.5153 537.346 52.287 537.229 52.0861L513.175 11.2525C513.058 11.0513 512.889 10.8848 512.687 10.7699C512.484 10.6511 512.254 10.5872 512.019 10.5844ZM499.395 31.935C499.161 31.9359 498.93 31.9977 498.727 32.1142C498.523 32.2291 498.352 32.3955 498.232 32.5968L474.185 73.43C474.065 73.6296 474.001 73.858 474 74.091C473.998 74.324 474.06 74.553 474.179 74.7537C474.298 74.9555 474.469 75.122 474.674 75.2363C474.879 75.3519 475.111 75.4168 475.348 75.4155H489.759C490.229 75.4161 490.692 75.2947 491.101 75.0631C491.508 74.8335 491.847 74.5007 492.084 74.0982L507.769 47.4593C508.004 47.0601 508.128 46.6052 508.128 46.1419C508.128 45.6767 508.004 45.2197 507.769 44.8183L500.564 32.5968C500.444 32.3955 500.273 32.2291 500.069 32.1142C499.864 31.9976 499.632 31.9358 499.395 31.935ZM508.932 59.8789C508.46 59.8781 507.995 59.9995 507.584 60.2314C507.177 60.4609 506.838 60.7937 506.601 61.1963L499.395 73.424C499.277 73.6247 499.215 73.8532 499.216 74.0859C499.215 74.3165 499.277 74.5429 499.395 74.7414C499.512 74.9442 499.681 75.1127 499.884 75.23C500.09 75.3449 500.322 75.4045 500.558 75.4032H548.659C548.895 75.4046 549.127 75.3449 549.333 75.23C549.536 75.1127 549.704 74.9442 549.821 74.7414C549.939 74.5429 550.001 74.3165 550.001 74.0859C550.001 73.8532 549.939 73.6247 549.821 73.424L542.622 61.1963C542.384 60.7937 542.045 60.4608 541.638 60.2314C541.229 59.9996 540.766 59.8782 540.296 59.8789H508.932Z" fill="#333333"/>
</g>
<path d="M687.661 32.741L693.247 38.331H702.406V47.4935L708 53.0835V32.741H687.661ZM629.167 34.1134L622 51.8867H626.691L628.016 48.3679H635.975L637.437 51.8867H642.231L634.298 34.1134H629.167ZM644.249 34.1134V51.8688H648.685V40.7891L653.48 46.3863H654.153L658.948 40.8106V51.8867H663.384V34.1134H659.518L653.813 40.7246L648.112 34.1134H644.249ZM666.763 34.1134V51.8867H674.134C681.225 51.8867 684.454 48.1386 684.454 43.0287C684.454 38.1554 681.096 34.1134 674.611 34.1134H666.763ZM671.196 37.3742H674.034C678.226 37.3742 679.874 39.922 679.874 43C679.874 45.6087 678.541 48.633 674.084 48.633H671.196V37.3742ZM631.833 38.3525L634.667 45.2755H629.195L631.833 38.3525ZM693.24 39.4526L687.493 45.1966V53.2591H695.541L701.288 47.5007H693.24V39.4526Z" fill="#333333"/>
<path d="M866 54.5999C857.24 42.2404 844.912 32.8526 830.668 27.6938C839.031 27.9759 847.336 29.1941 855.428 31.3255L849.861 26.5983C837.908 22.0404 825.22 19.7159 812.428 19.7405C804.708 19.7281 797.01 20.5737 789.476 22.2618L780 28.7813C781.2 28.7813 783.001 28.706 784.209 28.706C798.533 28.6907 812.654 32.0892 825.402 38.62C838.15 45.1507 849.158 54.6256 857.514 66.2594L866 54.5999ZM812.953 46.4966H824.898L823.705 50.7357H819.931L815.594 66.2594H811.423L815.744 50.7357H811.768L812.953 46.4966ZM799.441 46.4966H803.177L804.745 57.0832L807.694 46.4966H811.986L806.478 66.2594H802.292L800.844 56.4303L798.105 66.2594H793.918L799.441 46.4966ZM780 66.2594L790.114 46.5041H794.346L793.506 66.2594H789.259L789.454 63.6109H785.47L784.179 66.2594H780ZM787.24 59.507H789.709L790.459 52.5288L787.24 59.507ZM816.668 66.2594L826.804 46.5041H831.021L830.18 66.2594H825.948L826.136 63.6109H822.167L820.861 66.2594H816.668ZM823.923 59.507H826.392L827.142 52.5288L823.923 59.507Z" fill="#333333"/>
<defs>
<clipPath id="clip0_161_240">
<rect width="86" height="86" fill="white" transform="translate(158)"/>
</clipPath>
<clipPath id="clip1_161_240">
<rect width="76" height="76" fill="white" transform="translate(474 5)"/>
</clipPath>
</defs>
</svg>
