<svg width="184" height="65" viewBox="0 0 184 65" fill="none" xmlns="http://www.w3.org/2000/svg">
<rect x="0.75" y="0.75" width="182.5" height="63.5" rx="31.75" stroke="#2286FE" stroke-width="1.5"/>
<path d="M35.6097 22.314L45.793 32.5L35.6108 42.6864C35.4178 42.6048 35.2487 42.462 35.1355 42.2667C35.0474 42.1144 35.001 41.9416 35.001 41.7656V23.2345C35.001 22.8211 35.2519 22.4663 35.6097 22.314ZM46.5 33.207L48.802 35.509L37.865 41.842L46.5 33.207ZM49.699 30.009L52.5061 31.6347C52.9841 31.9114 53.1473 32.5232 52.8705 33.0011C52.783 33.1523 52.6574 33.278 52.5061 33.3655L49.698 34.991L47.207 32.5L49.699 30.009ZM37.865 23.158L48.803 29.49L46.5 31.793L37.865 23.158Z" fill="#2286FE"/>
<path d="M73.232 32V20.08H77.136C78.3733 20.08 79.4453 20.3307 80.352 20.832C81.2693 21.3227 81.9787 22.016 82.48 22.912C82.9813 23.808 83.232 24.848 83.232 26.032C83.232 27.2053 82.9813 28.2453 82.48 29.152C81.9787 30.048 81.2693 30.7467 80.352 31.248C79.4453 31.7493 78.3733 32 77.136 32H73.232ZM75.12 30.32H77.168C78.0107 30.32 78.7413 30.144 79.36 29.792C79.9893 29.44 80.4747 28.944 80.816 28.304C81.1573 27.664 81.328 26.9067 81.328 26.032C81.328 25.1573 81.152 24.4053 80.8 23.776C80.4587 23.136 79.9787 22.64 79.36 22.288C78.7413 21.936 78.0107 21.76 77.168 21.76H75.12V30.32ZM89.0914 32.192C88.2594 32.192 87.4967 31.9947 86.8034 31.6C86.1207 31.2053 85.5767 30.6667 85.1714 29.984C84.766 29.3013 84.5634 28.528 84.5634 27.664C84.5634 26.7893 84.766 26.016 85.1714 25.344C85.5767 24.6613 86.1207 24.128 86.8034 23.744C87.486 23.3493 88.2487 23.152 89.0914 23.152C89.9447 23.152 90.7074 23.3493 91.3794 23.744C92.062 24.128 92.6007 24.6613 92.9954 25.344C93.4007 26.016 93.6034 26.7893 93.6034 27.664C93.6034 28.5387 93.4007 29.3173 92.9954 30C92.59 30.6827 92.046 31.2213 91.3634 31.616C90.6807 32 89.9234 32.192 89.0914 32.192ZM89.0914 30.512C89.6034 30.512 90.0567 30.3893 90.4514 30.144C90.846 29.8987 91.1554 29.5627 91.3794 29.136C91.614 28.6987 91.7314 28.208 91.7314 27.664C91.7314 27.12 91.614 26.6347 91.3794 26.208C91.1554 25.7813 90.846 25.4453 90.4514 25.2C90.0567 24.9547 89.6034 24.832 89.0914 24.832C88.59 24.832 88.1367 24.9547 87.7314 25.2C87.3367 25.4453 87.022 25.7813 86.7874 26.208C86.5634 26.6347 86.4514 27.12 86.4514 27.664C86.4514 28.208 86.5634 28.6987 86.7874 29.136C87.022 29.5627 87.3367 29.8987 87.7314 30.144C88.1367 30.3893 88.59 30.512 89.0914 30.512ZM97.3083 32L94.3323 23.344H96.2523L98.5243 30.24H97.8523L100.172 23.344H101.82L104.124 30.24H103.452L105.74 23.344H107.66L104.668 32H103.036L100.7 24.944H101.292L98.9563 32H97.3083ZM108.9 32V23.344H110.628V25.04L110.42 24.816C110.633 24.272 110.974 23.8613 111.444 23.584C111.913 23.296 112.457 23.152 113.076 23.152C113.716 23.152 114.281 23.2907 114.772 23.568C115.262 23.8453 115.646 24.2293 115.924 24.72C116.201 25.2107 116.34 25.776 116.34 26.416V32H114.548V26.896C114.548 26.4587 114.468 26.0907 114.308 25.792C114.148 25.4827 113.918 25.248 113.62 25.088C113.332 24.9173 113.001 24.832 112.628 24.832C112.254 24.832 111.918 24.9173 111.62 25.088C111.332 25.248 111.108 25.4827 110.948 25.792C110.788 26.1013 110.708 26.4693 110.708 26.896V32H108.9ZM118.275 32V19.888H120.083V32H118.275ZM126.373 32.192C125.541 32.192 124.778 31.9947 124.085 31.6C123.402 31.2053 122.858 30.6667 122.453 29.984C122.047 29.3013 121.845 28.528 121.845 27.664C121.845 26.7893 122.047 26.016 122.453 25.344C122.858 24.6613 123.402 24.128 124.085 23.744C124.767 23.3493 125.53 23.152 126.373 23.152C127.226 23.152 127.989 23.3493 128.661 23.744C129.343 24.128 129.882 24.6613 130.277 25.344C130.682 26.016 130.885 26.7893 130.885 27.664C130.885 28.5387 130.682 29.3173 130.277 30C129.871 30.6827 129.327 31.2213 128.645 31.616C127.962 32 127.205 32.192 126.373 32.192ZM126.373 30.512C126.885 30.512 127.338 30.3893 127.733 30.144C128.127 29.8987 128.437 29.5627 128.661 29.136C128.895 28.6987 129.013 28.208 129.013 27.664C129.013 27.12 128.895 26.6347 128.661 26.208C128.437 25.7813 128.127 25.4453 127.733 25.2C127.338 24.9547 126.885 24.832 126.373 24.832C125.871 24.832 125.418 24.9547 125.013 25.2C124.618 25.4453 124.303 25.7813 124.069 26.208C123.845 26.6347 123.733 27.12 123.733 27.664C123.733 28.208 123.845 28.6987 124.069 29.136C124.303 29.5627 124.618 29.8987 125.013 30.144C125.418 30.3893 125.871 30.512 126.373 30.512ZM135.242 32.192C134.655 32.192 134.138 32.0907 133.69 31.888C133.252 31.6747 132.911 31.3867 132.666 31.024C132.42 30.6507 132.298 30.2133 132.298 29.712C132.298 29.2427 132.399 28.8213 132.602 28.448C132.815 28.0747 133.14 27.76 133.578 27.504C134.015 27.248 134.564 27.0667 135.226 26.96L138.234 26.464V27.888L135.578 28.352C135.098 28.4373 134.746 28.592 134.522 28.816C134.298 29.0293 134.186 29.3067 134.186 29.648C134.186 29.9787 134.308 30.2507 134.554 30.464C134.81 30.6667 135.135 30.768 135.53 30.768C136.02 30.768 136.447 30.6613 136.81 30.448C137.183 30.2347 137.471 29.952 137.674 29.6C137.876 29.2373 137.978 28.8373 137.978 28.4V26.176C137.978 25.7493 137.818 25.4027 137.498 25.136C137.188 24.8587 136.772 24.72 136.25 24.72C135.77 24.72 135.348 24.848 134.986 25.104C134.634 25.3493 134.372 25.6693 134.202 26.064L132.698 25.312C132.858 24.8853 133.119 24.512 133.482 24.192C133.844 23.8613 134.266 23.6053 134.746 23.424C135.236 23.2427 135.754 23.152 136.298 23.152C136.98 23.152 137.583 23.28 138.106 23.536C138.639 23.792 139.05 24.1493 139.338 24.608C139.636 25.056 139.786 25.5787 139.786 26.176V32H138.058V30.432L138.426 30.48C138.223 30.832 137.962 31.136 137.642 31.392C137.332 31.648 136.975 31.8453 136.57 31.984C136.175 32.1227 135.732 32.192 135.242 32.192ZM145.9 32.192C145.068 32.192 144.321 31.9947 143.66 31.6C143.009 31.1947 142.492 30.6507 142.108 29.968C141.734 29.2853 141.548 28.5173 141.548 27.664C141.548 26.8107 141.74 26.0427 142.124 25.36C142.508 24.6773 143.025 24.1387 143.676 23.744C144.326 23.3493 145.062 23.152 145.884 23.152C146.577 23.152 147.19 23.2907 147.724 23.568C148.257 23.8453 148.678 24.2293 148.988 24.72L148.716 25.136V19.888H150.508V32H148.796V30.24L149.004 30.576C148.705 31.0987 148.278 31.4987 147.724 31.776C147.169 32.0533 146.561 32.192 145.9 32.192ZM146.076 30.512C146.577 30.512 147.025 30.3893 147.42 30.144C147.825 29.8987 148.14 29.5627 148.364 29.136C148.598 28.6987 148.716 28.208 148.716 27.664C148.716 27.12 148.598 26.6347 148.364 26.208C148.14 25.7813 147.825 25.4453 147.42 25.2C147.025 24.9547 146.577 24.832 146.076 24.832C145.574 24.832 145.121 24.9547 144.716 25.2C144.31 25.4453 143.996 25.7813 143.772 26.208C143.548 26.6347 143.436 27.12 143.436 27.664C143.436 28.208 143.548 28.6987 143.772 29.136C143.996 29.5627 144.305 29.8987 144.7 30.144C145.105 30.3893 145.564 30.512 146.076 30.512Z" fill="#2286FE"/>
<path d="M73.056 47V38.06H78.576V38.96H74.016V42.068H78.216V42.968H74.016V47H73.056ZM82.6743 47.144C82.0663 47.144 81.5143 47 81.0183 46.712C80.5223 46.416 80.1263 46.016 79.8303 45.512C79.5423 45 79.3983 44.42 79.3983 43.772C79.3983 43.132 79.5423 42.56 79.8303 42.056C80.1183 41.552 80.5063 41.156 80.9943 40.868C81.4903 40.572 82.0503 40.424 82.6743 40.424C83.2983 40.424 83.8543 40.568 84.3423 40.856C84.8383 41.144 85.2263 41.54 85.5063 42.044C85.7943 42.548 85.9383 43.124 85.9383 43.772C85.9383 44.428 85.7903 45.012 85.4943 45.524C85.1983 46.028 84.8023 46.424 84.3063 46.712C83.8183 47 83.2743 47.144 82.6743 47.144ZM82.6743 46.244C83.1063 46.244 83.4943 46.136 83.8383 45.92C84.1903 45.704 84.4663 45.408 84.6663 45.032C84.8743 44.656 84.9783 44.236 84.9783 43.772C84.9783 43.308 84.8743 42.892 84.6663 42.524C84.4663 42.156 84.1903 41.864 83.8383 41.648C83.4943 41.432 83.1063 41.324 82.6743 41.324C82.2423 41.324 81.8503 41.432 81.4983 41.648C81.1543 41.864 80.8783 42.156 80.6703 42.524C80.4623 42.892 80.3583 43.308 80.3583 43.772C80.3583 44.236 80.4623 44.656 80.6703 45.032C80.8783 45.408 81.1543 45.704 81.4983 45.92C81.8503 46.136 82.2423 46.244 82.6743 46.244ZM87.5256 47V40.568H88.4256V41.624L88.3056 41.468C88.4576 41.164 88.6856 40.924 88.9896 40.748C89.3016 40.572 89.6776 40.484 90.1176 40.484H90.5256V41.384H89.9616C89.4976 41.384 89.1256 41.528 88.8456 41.816C88.5656 42.104 88.4256 42.512 88.4256 43.04V47H87.5256ZM92.8273 47L96.0913 38.06H97.1233L100.387 47H99.3793L98.6113 44.816H94.6153L93.8353 47H92.8273ZM94.9273 43.916H98.2753L96.4633 38.78H96.7513L94.9273 43.916ZM101.447 47V40.568H102.347V41.816L102.143 41.768C102.303 41.352 102.563 41.024 102.923 40.784C103.291 40.544 103.715 40.424 104.195 40.424C104.651 40.424 105.059 40.528 105.419 40.736C105.787 40.944 106.075 41.232 106.283 41.6C106.499 41.96 106.607 42.368 106.607 42.824V47H105.707V43.172C105.707 42.78 105.635 42.448 105.491 42.176C105.355 41.904 105.159 41.696 104.903 41.552C104.655 41.4 104.367 41.324 104.039 41.324C103.711 41.324 103.419 41.4 103.163 41.552C102.907 41.696 102.707 41.908 102.563 42.188C102.419 42.46 102.347 42.788 102.347 43.172V47H101.447ZM111.23 47.144C110.63 47.144 110.09 47 109.61 46.712C109.13 46.416 108.75 46.016 108.47 45.512C108.198 45 108.062 44.424 108.062 43.784C108.062 43.136 108.198 42.56 108.47 42.056C108.75 41.552 109.126 41.156 109.598 40.868C110.078 40.572 110.622 40.424 111.23 40.424C111.782 40.424 112.274 40.544 112.706 40.784C113.138 41.024 113.478 41.348 113.726 41.756L113.582 42.008V37.916H114.482V47H113.582V45.56L113.726 45.692C113.502 46.156 113.166 46.516 112.718 46.772C112.278 47.02 111.782 47.144 111.23 47.144ZM111.278 46.244C111.71 46.244 112.098 46.136 112.442 45.92C112.794 45.704 113.07 45.412 113.27 45.044C113.478 44.668 113.582 44.248 113.582 43.784C113.582 43.32 113.478 42.904 113.27 42.536C113.07 42.16 112.794 41.864 112.442 41.648C112.098 41.432 111.71 41.324 111.278 41.324C110.854 41.324 110.47 41.432 110.126 41.648C109.782 41.864 109.51 42.156 109.31 42.524C109.118 42.892 109.022 43.312 109.022 43.784C109.022 44.248 109.118 44.668 109.31 45.044C109.51 45.412 109.778 45.704 110.114 45.92C110.458 46.136 110.846 46.244 111.278 46.244ZM116.33 47V40.568H117.23V41.624L117.11 41.468C117.262 41.164 117.49 40.924 117.794 40.748C118.106 40.572 118.482 40.484 118.922 40.484H119.33V41.384H118.766C118.302 41.384 117.93 41.528 117.65 41.816C117.37 42.104 117.23 42.512 117.23 43.04V47H116.33ZM123.397 47.144C122.789 47.144 122.237 47 121.741 46.712C121.245 46.416 120.849 46.016 120.553 45.512C120.265 45 120.121 44.42 120.121 43.772C120.121 43.132 120.265 42.56 120.553 42.056C120.841 41.552 121.229 41.156 121.717 40.868C122.213 40.572 122.773 40.424 123.397 40.424C124.021 40.424 124.577 40.568 125.065 40.856C125.561 41.144 125.949 41.54 126.229 42.044C126.517 42.548 126.661 43.124 126.661 43.772C126.661 44.428 126.513 45.012 126.217 45.524C125.921 46.028 125.525 46.424 125.029 46.712C124.541 47 123.997 47.144 123.397 47.144ZM123.397 46.244C123.829 46.244 124.217 46.136 124.561 45.92C124.913 45.704 125.189 45.408 125.389 45.032C125.597 44.656 125.701 44.236 125.701 43.772C125.701 43.308 125.597 42.892 125.389 42.524C125.189 42.156 124.913 41.864 124.561 41.648C124.217 41.432 123.829 41.324 123.397 41.324C122.965 41.324 122.573 41.432 122.221 41.648C121.877 41.864 121.601 42.156 121.393 42.524C121.185 42.892 121.081 43.308 121.081 43.772C121.081 44.236 121.185 44.656 121.393 45.032C121.601 45.408 121.877 45.704 122.221 45.92C122.573 46.136 122.965 46.244 123.397 46.244ZM128.248 47V40.568H129.148V47H128.248ZM128.248 39.38V38.06H129.148V39.38H128.248ZM133.894 47.144C133.294 47.144 132.754 47 132.274 46.712C131.794 46.416 131.414 46.016 131.134 45.512C130.862 45 130.726 44.424 130.726 43.784C130.726 43.136 130.862 42.56 131.134 42.056C131.414 41.552 131.79 41.156 132.262 40.868C132.742 40.572 133.286 40.424 133.894 40.424C134.446 40.424 134.938 40.544 135.37 40.784C135.802 41.024 136.142 41.348 136.39 41.756L136.246 42.008V37.916H137.146V47H136.246V45.56L136.39 45.692C136.166 46.156 135.83 46.516 135.382 46.772C134.942 47.02 134.446 47.144 133.894 47.144ZM133.942 46.244C134.374 46.244 134.762 46.136 135.106 45.92C135.458 45.704 135.734 45.412 135.934 45.044C136.142 44.668 136.246 44.248 136.246 43.784C136.246 43.32 136.142 42.904 135.934 42.536C135.734 42.16 135.458 41.864 135.106 41.648C134.762 41.432 134.374 41.324 133.942 41.324C133.518 41.324 133.134 41.432 132.79 41.648C132.446 41.864 132.174 42.156 131.974 42.524C131.782 42.892 131.686 43.312 131.686 43.784C131.686 44.248 131.782 44.668 131.974 45.044C132.174 45.412 132.442 45.704 132.778 45.92C133.122 46.136 133.51 46.244 133.942 46.244Z" fill="#2286FE"/>
</svg>
