<svg width="184" height="65" viewBox="0 0 184 65" fill="none" xmlns="http://www.w3.org/2000/svg">
<rect x="0.75" y="0.75" width="182.5" height="63.5" rx="31.75" stroke="#2286FE" stroke-width="1.5"/>
<path d="M43.6734 27.722C42.7974 27.722 41.4414 26.726 40.0134 26.762C38.1294 26.786 36.4014 27.854 35.4294 29.546C33.4734 32.942 34.9254 37.958 36.8334 40.718C37.7694 42.062 38.8734 43.574 40.3374 43.526C41.7414 43.466 42.2694 42.614 43.9734 42.614C45.6654 42.614 46.1454 43.526 47.6334 43.49C49.1454 43.466 50.1054 42.122 51.0294 40.766C52.0974 39.206 52.5414 37.694 52.5654 37.61C52.5294 37.598 49.6254 36.482 49.5894 33.122C49.5654 30.314 51.8814 28.97 51.9894 28.91C50.6694 26.978 48.6414 26.762 47.9334 26.714C46.0854 26.57 44.5374 27.722 43.6734 27.722ZM46.7934 24.89C47.5734 23.954 48.0894 22.646 47.9454 21.35C46.8294 21.398 45.4854 22.094 44.6814 23.03C43.9614 23.858 43.3374 25.19 43.5054 26.462C44.7414 26.558 46.0134 25.826 46.7934 24.89Z" fill="#2286FE"/>
<path d="M73.232 32V20.08H77.136C78.3733 20.08 79.4453 20.3307 80.352 20.832C81.2693 21.3227 81.9787 22.016 82.48 22.912C82.9813 23.808 83.232 24.848 83.232 26.032C83.232 27.2053 82.9813 28.2453 82.48 29.152C81.9787 30.048 81.2693 30.7467 80.352 31.248C79.4453 31.7493 78.3733 32 77.136 32H73.232ZM75.12 30.32H77.168C78.0107 30.32 78.7413 30.144 79.36 29.792C79.9893 29.44 80.4747 28.944 80.816 28.304C81.1573 27.664 81.328 26.9067 81.328 26.032C81.328 25.1573 81.152 24.4053 80.8 23.776C80.4587 23.136 79.9787 22.64 79.36 22.288C78.7413 21.936 78.0107 21.76 77.168 21.76H75.12V30.32ZM89.0914 32.192C88.2594 32.192 87.4967 31.9947 86.8034 31.6C86.1207 31.2053 85.5767 30.6667 85.1714 29.984C84.766 29.3013 84.5634 28.528 84.5634 27.664C84.5634 26.7893 84.766 26.016 85.1714 25.344C85.5767 24.6613 86.1207 24.128 86.8034 23.744C87.486 23.3493 88.2487 23.152 89.0914 23.152C89.9447 23.152 90.7074 23.3493 91.3794 23.744C92.062 24.128 92.6007 24.6613 92.9954 25.344C93.4007 26.016 93.6034 26.7893 93.6034 27.664C93.6034 28.5387 93.4007 29.3173 92.9954 30C92.59 30.6827 92.046 31.2213 91.3634 31.616C90.6807 32 89.9234 32.192 89.0914 32.192ZM89.0914 30.512C89.6034 30.512 90.0567 30.3893 90.4514 30.144C90.846 29.8987 91.1554 29.5627 91.3794 29.136C91.614 28.6987 91.7314 28.208 91.7314 27.664C91.7314 27.12 91.614 26.6347 91.3794 26.208C91.1554 25.7813 90.846 25.4453 90.4514 25.2C90.0567 24.9547 89.6034 24.832 89.0914 24.832C88.59 24.832 88.1367 24.9547 87.7314 25.2C87.3367 25.4453 87.022 25.7813 86.7874 26.208C86.5634 26.6347 86.4514 27.12 86.4514 27.664C86.4514 28.208 86.5634 28.6987 86.7874 29.136C87.022 29.5627 87.3367 29.8987 87.7314 30.144C88.1367 30.3893 88.59 30.512 89.0914 30.512ZM97.3083 32L94.3323 23.344H96.2523L98.5243 30.24H97.8523L100.172 23.344H101.82L104.124 30.24H103.452L105.74 23.344H107.66L104.668 32H103.036L100.7 24.944H101.292L98.9563 32H97.3083ZM108.9 32V23.344H110.628V25.04L110.42 24.816C110.633 24.272 110.974 23.8613 111.444 23.584C111.913 23.296 112.457 23.152 113.076 23.152C113.716 23.152 114.281 23.2907 114.772 23.568C115.262 23.8453 115.646 24.2293 115.924 24.72C116.201 25.2107 116.34 25.776 116.34 26.416V32H114.548V26.896C114.548 26.4587 114.468 26.0907 114.308 25.792C114.148 25.4827 113.918 25.248 113.62 25.088C113.332 24.9173 113.001 24.832 112.628 24.832C112.254 24.832 111.918 24.9173 111.62 25.088C111.332 25.248 111.108 25.4827 110.948 25.792C110.788 26.1013 110.708 26.4693 110.708 26.896V32H108.9ZM118.275 32V19.888H120.083V32H118.275ZM126.373 32.192C125.541 32.192 124.778 31.9947 124.085 31.6C123.402 31.2053 122.858 30.6667 122.453 29.984C122.047 29.3013 121.845 28.528 121.845 27.664C121.845 26.7893 122.047 26.016 122.453 25.344C122.858 24.6613 123.402 24.128 124.085 23.744C124.767 23.3493 125.53 23.152 126.373 23.152C127.226 23.152 127.989 23.3493 128.661 23.744C129.343 24.128 129.882 24.6613 130.277 25.344C130.682 26.016 130.885 26.7893 130.885 27.664C130.885 28.5387 130.682 29.3173 130.277 30C129.871 30.6827 129.327 31.2213 128.645 31.616C127.962 32 127.205 32.192 126.373 32.192ZM126.373 30.512C126.885 30.512 127.338 30.3893 127.733 30.144C128.127 29.8987 128.437 29.5627 128.661 29.136C128.895 28.6987 129.013 28.208 129.013 27.664C129.013 27.12 128.895 26.6347 128.661 26.208C128.437 25.7813 128.127 25.4453 127.733 25.2C127.338 24.9547 126.885 24.832 126.373 24.832C125.871 24.832 125.418 24.9547 125.013 25.2C124.618 25.4453 124.303 25.7813 124.069 26.208C123.845 26.6347 123.733 27.12 123.733 27.664C123.733 28.208 123.845 28.6987 124.069 29.136C124.303 29.5627 124.618 29.8987 125.013 30.144C125.418 30.3893 125.871 30.512 126.373 30.512ZM135.242 32.192C134.655 32.192 134.138 32.0907 133.69 31.888C133.252 31.6747 132.911 31.3867 132.666 31.024C132.42 30.6507 132.298 30.2133 132.298 29.712C132.298 29.2427 132.399 28.8213 132.602 28.448C132.815 28.0747 133.14 27.76 133.578 27.504C134.015 27.248 134.564 27.0667 135.226 26.96L138.234 26.464V27.888L135.578 28.352C135.098 28.4373 134.746 28.592 134.522 28.816C134.298 29.0293 134.186 29.3067 134.186 29.648C134.186 29.9787 134.308 30.2507 134.554 30.464C134.81 30.6667 135.135 30.768 135.53 30.768C136.02 30.768 136.447 30.6613 136.81 30.448C137.183 30.2347 137.471 29.952 137.674 29.6C137.876 29.2373 137.978 28.8373 137.978 28.4V26.176C137.978 25.7493 137.818 25.4027 137.498 25.136C137.188 24.8587 136.772 24.72 136.25 24.72C135.77 24.72 135.348 24.848 134.986 25.104C134.634 25.3493 134.372 25.6693 134.202 26.064L132.698 25.312C132.858 24.8853 133.119 24.512 133.482 24.192C133.844 23.8613 134.266 23.6053 134.746 23.424C135.236 23.2427 135.754 23.152 136.298 23.152C136.98 23.152 137.583 23.28 138.106 23.536C138.639 23.792 139.05 24.1493 139.338 24.608C139.636 25.056 139.786 25.5787 139.786 26.176V32H138.058V30.432L138.426 30.48C138.223 30.832 137.962 31.136 137.642 31.392C137.332 31.648 136.975 31.8453 136.57 31.984C136.175 32.1227 135.732 32.192 135.242 32.192ZM145.9 32.192C145.068 32.192 144.321 31.9947 143.66 31.6C143.009 31.1947 142.492 30.6507 142.108 29.968C141.734 29.2853 141.548 28.5173 141.548 27.664C141.548 26.8107 141.74 26.0427 142.124 25.36C142.508 24.6773 143.025 24.1387 143.676 23.744C144.326 23.3493 145.062 23.152 145.884 23.152C146.577 23.152 147.19 23.2907 147.724 23.568C148.257 23.8453 148.678 24.2293 148.988 24.72L148.716 25.136V19.888H150.508V32H148.796V30.24L149.004 30.576C148.705 31.0987 148.278 31.4987 147.724 31.776C147.169 32.0533 146.561 32.192 145.9 32.192ZM146.076 30.512C146.577 30.512 147.025 30.3893 147.42 30.144C147.825 29.8987 148.14 29.5627 148.364 29.136C148.598 28.6987 148.716 28.208 148.716 27.664C148.716 27.12 148.598 26.6347 148.364 26.208C148.14 25.7813 147.825 25.4453 147.42 25.2C147.025 24.9547 146.577 24.832 146.076 24.832C145.574 24.832 145.121 24.9547 144.716 25.2C144.31 25.4453 143.996 25.7813 143.772 26.208C143.548 26.6347 143.436 27.12 143.436 27.664C143.436 28.208 143.548 28.6987 143.772 29.136C143.996 29.5627 144.305 29.8987 144.7 30.144C145.105 30.3893 145.564 30.512 146.076 30.512Z" fill="#2286FE"/>
<path d="M73.056 47V38.06H78.576V38.96H74.016V42.068H78.216V42.968H74.016V47H73.056ZM82.6743 47.144C82.0663 47.144 81.5143 47 81.0183 46.712C80.5223 46.416 80.1263 46.016 79.8303 45.512C79.5423 45 79.3983 44.42 79.3983 43.772C79.3983 43.132 79.5423 42.56 79.8303 42.056C80.1183 41.552 80.5063 41.156 80.9943 40.868C81.4903 40.572 82.0503 40.424 82.6743 40.424C83.2983 40.424 83.8543 40.568 84.3423 40.856C84.8383 41.144 85.2263 41.54 85.5063 42.044C85.7943 42.548 85.9383 43.124 85.9383 43.772C85.9383 44.428 85.7903 45.012 85.4943 45.524C85.1983 46.028 84.8023 46.424 84.3063 46.712C83.8183 47 83.2743 47.144 82.6743 47.144ZM82.6743 46.244C83.1063 46.244 83.4943 46.136 83.8383 45.92C84.1903 45.704 84.4663 45.408 84.6663 45.032C84.8743 44.656 84.9783 44.236 84.9783 43.772C84.9783 43.308 84.8743 42.892 84.6663 42.524C84.4663 42.156 84.1903 41.864 83.8383 41.648C83.4943 41.432 83.1063 41.324 82.6743 41.324C82.2423 41.324 81.8503 41.432 81.4983 41.648C81.1543 41.864 80.8783 42.156 80.6703 42.524C80.4623 42.892 80.3583 43.308 80.3583 43.772C80.3583 44.236 80.4623 44.656 80.6703 45.032C80.8783 45.408 81.1543 45.704 81.4983 45.92C81.8503 46.136 82.2423 46.244 82.6743 46.244ZM87.5256 47V40.568H88.4256V41.624L88.3056 41.468C88.4576 41.164 88.6856 40.924 88.9896 40.748C89.3016 40.572 89.6776 40.484 90.1176 40.484H90.5256V41.384H89.9616C89.4976 41.384 89.1256 41.528 88.8456 41.816C88.5656 42.104 88.4256 42.512 88.4256 43.04V47H87.5256ZM92.8273 47L96.0913 38.06H97.1233L100.387 47H99.3793L98.6113 44.816H94.6153L93.8353 47H92.8273ZM94.9273 43.916H98.2753L96.4633 38.78H96.7513L94.9273 43.916ZM101.447 49.4V40.568H102.347V42.008L102.203 41.756C102.459 41.348 102.799 41.024 103.223 40.784C103.655 40.544 104.147 40.424 104.699 40.424C105.307 40.424 105.847 40.572 106.319 40.868C106.799 41.156 107.175 41.552 107.447 42.056C107.727 42.56 107.867 43.136 107.867 43.784C107.867 44.424 107.727 45 107.447 45.512C107.175 46.016 106.799 46.416 106.319 46.712C105.847 47 105.307 47.144 104.699 47.144C104.147 47.144 103.647 47.02 103.199 46.772C102.759 46.516 102.427 46.156 102.203 45.692L102.347 45.56V49.4H101.447ZM104.651 46.244C105.083 46.244 105.467 46.136 105.803 45.92C106.147 45.704 106.415 45.412 106.607 45.044C106.807 44.668 106.907 44.248 106.907 43.784C106.907 43.312 106.807 42.892 106.607 42.524C106.415 42.156 106.147 41.864 105.803 41.648C105.467 41.432 105.083 41.324 104.651 41.324C104.219 41.324 103.827 41.432 103.475 41.648C103.131 41.864 102.855 42.16 102.647 42.536C102.447 42.904 102.347 43.32 102.347 43.784C102.347 44.248 102.447 44.668 102.647 45.044C102.855 45.412 103.131 45.704 103.475 45.92C103.827 46.136 104.219 46.244 104.651 46.244ZM109.451 49.4V40.568H110.351V42.008L110.207 41.756C110.463 41.348 110.803 41.024 111.227 40.784C111.659 40.544 112.151 40.424 112.703 40.424C113.311 40.424 113.851 40.572 114.323 40.868C114.803 41.156 115.179 41.552 115.451 42.056C115.731 42.56 115.871 43.136 115.871 43.784C115.871 44.424 115.731 45 115.451 45.512C115.179 46.016 114.803 46.416 114.323 46.712C113.851 47 113.311 47.144 112.703 47.144C112.151 47.144 111.651 47.02 111.203 46.772C110.763 46.516 110.431 46.156 110.207 45.692L110.351 45.56V49.4H109.451ZM112.655 46.244C113.087 46.244 113.471 46.136 113.807 45.92C114.151 45.704 114.419 45.412 114.611 45.044C114.811 44.668 114.911 44.248 114.911 43.784C114.911 43.312 114.811 42.892 114.611 42.524C114.419 42.156 114.151 41.864 113.807 41.648C113.471 41.432 113.087 41.324 112.655 41.324C112.223 41.324 111.831 41.432 111.479 41.648C111.135 41.864 110.859 42.16 110.651 42.536C110.451 42.904 110.351 43.32 110.351 43.784C110.351 44.248 110.451 44.668 110.651 45.044C110.859 45.412 111.135 45.704 111.479 45.92C111.831 46.136 112.223 46.244 112.655 46.244ZM117.455 47V37.916H118.355V47H117.455ZM123.125 47.144C122.525 47.144 121.981 47 121.493 46.712C121.013 46.416 120.633 46.012 120.353 45.5C120.073 44.988 119.933 44.408 119.933 43.76C119.933 43.112 120.069 42.54 120.341 42.044C120.613 41.54 120.981 41.144 121.445 40.856C121.917 40.568 122.445 40.424 123.029 40.424C123.493 40.424 123.905 40.512 124.265 40.688C124.633 40.856 124.945 41.088 125.201 41.384C125.457 41.672 125.653 42 125.789 42.368C125.925 42.728 125.993 43.1 125.993 43.484C125.993 43.564 125.989 43.656 125.981 43.76C125.973 43.856 125.961 43.956 125.945 44.06H120.509V43.22H125.429L124.997 43.58C125.069 43.14 125.017 42.748 124.841 42.404C124.673 42.052 124.429 41.776 124.109 41.576C123.789 41.368 123.429 41.264 123.029 41.264C122.629 41.264 122.257 41.368 121.913 41.576C121.577 41.784 121.313 42.076 121.121 42.452C120.929 42.82 120.853 43.26 120.893 43.772C120.853 44.284 120.933 44.732 121.133 45.116C121.341 45.492 121.621 45.784 121.973 45.992C122.333 46.2 122.717 46.304 123.125 46.304C123.597 46.304 123.993 46.192 124.313 45.968C124.633 45.744 124.893 45.464 125.093 45.128L125.861 45.536C125.733 45.824 125.537 46.092 125.273 46.34C125.009 46.58 124.693 46.776 124.325 46.928C123.965 47.072 123.565 47.144 123.125 47.144Z" fill="#2286FE"/>
</svg>
