<svg width="241" height="56" viewBox="0 0 241 56" fill="none" xmlns="http://www.w3.org/2000/svg">
<rect width="241" height="56" rx="28" fill="#2286FE"/>
<path d="M43.6734 23.222C42.7974 23.222 41.4414 22.226 40.0134 22.262C38.1294 22.286 36.4014 23.354 35.4294 25.046C33.4734 28.442 34.9254 33.458 36.8334 36.218C37.7694 37.562 38.8734 39.074 40.3374 39.026C41.7414 38.966 42.2694 38.114 43.9734 38.114C45.6654 38.114 46.1454 39.026 47.6334 38.99C49.1454 38.966 50.1054 37.622 51.0294 36.266C52.0974 34.706 52.5414 33.194 52.5654 33.11C52.5294 33.098 49.6254 31.982 49.5894 28.622C49.5654 25.814 51.8814 24.47 51.9894 24.41C50.6694 22.478 48.6414 22.262 47.9334 22.214C46.0854 22.07 44.5374 23.222 43.6734 23.222ZM46.7934 20.39C47.5734 19.454 48.0894 18.146 47.9454 16.85C46.8294 16.898 45.4854 17.594 44.6814 18.53C43.9614 19.358 43.3374 20.69 43.5054 21.962C44.7414 22.058 46.0134 21.326 46.7934 20.39Z" fill="white"/>
<path d="M62 20V36" stroke="white" stroke-width="0.5"/>
<path d="M71.6097 17.814L81.793 28L71.6108 38.1864C71.4178 38.1048 71.2487 37.962 71.1355 37.7667C71.0474 37.6144 71.001 37.4416 71.001 37.2656V18.7345C71.001 18.3211 71.2519 17.9663 71.6097 17.814ZM82.5 28.707L84.802 31.009L73.865 37.342L82.5 28.707ZM85.699 25.509L88.5061 27.1347C88.9841 27.4114 89.1473 28.0232 88.8705 28.5011C88.783 28.6523 88.6574 28.778 88.5061 28.8655L85.698 30.491L83.207 28L85.699 25.509ZM73.865 18.658L84.803 24.99L82.5 27.293L73.865 18.658Z" fill="white"/>
<path d="M109.078 33.5V23.07H112.494C113.577 23.07 114.515 23.2893 115.308 23.728C116.111 24.1573 116.731 24.764 117.17 25.548C117.609 26.332 117.828 27.242 117.828 28.278C117.828 29.3047 117.609 30.2147 117.17 31.008C116.731 31.792 116.111 32.4033 115.308 32.842C114.515 33.2807 113.577 33.5 112.494 33.5H109.078ZM110.73 32.03H112.522C113.259 32.03 113.899 31.876 114.44 31.568C114.991 31.26 115.415 30.826 115.714 30.266C116.013 29.706 116.162 29.0433 116.162 28.278C116.162 27.5127 116.008 26.8547 115.7 26.304C115.401 25.744 114.981 25.31 114.44 25.002C113.899 24.694 113.259 24.54 112.522 24.54H110.73V32.03ZM122.955 33.668C122.227 33.668 121.56 33.4953 120.953 33.15C120.356 32.8047 119.88 32.3333 119.525 31.736C119.17 31.1387 118.993 30.462 118.993 29.706C118.993 28.9407 119.17 28.264 119.525 27.676C119.88 27.0787 120.356 26.612 120.953 26.276C121.55 25.9307 122.218 25.758 122.955 25.758C123.702 25.758 124.369 25.9307 124.957 26.276C125.554 26.612 126.026 27.0787 126.371 27.676C126.726 28.264 126.903 28.9407 126.903 29.706C126.903 30.4713 126.726 31.1527 126.371 31.75C126.016 32.3473 125.54 32.8187 124.943 33.164C124.346 33.5 123.683 33.668 122.955 33.668ZM122.955 32.198C123.403 32.198 123.8 32.0907 124.145 31.876C124.49 31.6613 124.761 31.3673 124.957 30.994C125.162 30.6113 125.265 30.182 125.265 29.706C125.265 29.23 125.162 28.8053 124.957 28.432C124.761 28.0587 124.49 27.7647 124.145 27.55C123.8 27.3353 123.403 27.228 122.955 27.228C122.516 27.228 122.12 27.3353 121.765 27.55C121.42 27.7647 121.144 28.0587 120.939 28.432C120.743 28.8053 120.645 29.23 120.645 29.706C120.645 30.182 120.743 30.6113 120.939 30.994C121.144 31.3673 121.42 31.6613 121.765 31.876C122.12 32.0907 122.516 32.198 122.955 32.198ZM130.145 33.5L127.541 25.926H129.221L131.209 31.96H130.621L132.651 25.926H134.093L136.109 31.96H135.521L137.523 25.926H139.203L136.585 33.5H135.157L133.113 27.326H133.631L131.587 33.5H130.145ZM140.287 33.5V25.926H141.799V27.41L141.617 27.214C141.804 26.738 142.103 26.3787 142.513 26.136C142.924 25.884 143.4 25.758 143.941 25.758C144.501 25.758 144.996 25.8793 145.425 26.122C145.855 26.3647 146.191 26.7007 146.433 27.13C146.676 27.5593 146.797 28.054 146.797 28.614V33.5H145.229V29.034C145.229 28.6513 145.159 28.3293 145.019 28.068C144.879 27.7973 144.679 27.592 144.417 27.452C144.165 27.3027 143.876 27.228 143.549 27.228C143.223 27.228 142.929 27.3027 142.667 27.452C142.415 27.592 142.219 27.7973 142.079 28.068C141.939 28.3387 141.869 28.6607 141.869 29.034V33.5H140.287ZM148.49 33.5V22.902H150.072V33.5H148.49ZM155.576 33.668C154.848 33.668 154.181 33.4953 153.574 33.15C152.977 32.8047 152.501 32.3333 152.146 31.736C151.791 31.1387 151.614 30.462 151.614 29.706C151.614 28.9407 151.791 28.264 152.146 27.676C152.501 27.0787 152.977 26.612 153.574 26.276C154.171 25.9307 154.839 25.758 155.576 25.758C156.323 25.758 156.99 25.9307 157.578 26.276C158.175 26.612 158.647 27.0787 158.992 27.676C159.347 28.264 159.524 28.9407 159.524 29.706C159.524 30.4713 159.347 31.1527 158.992 31.75C158.637 32.3473 158.161 32.8187 157.564 33.164C156.967 33.5 156.304 33.668 155.576 33.668ZM155.576 32.198C156.024 32.198 156.421 32.0907 156.766 31.876C157.111 31.6613 157.382 31.3673 157.578 30.994C157.783 30.6113 157.886 30.182 157.886 29.706C157.886 29.23 157.783 28.8053 157.578 28.432C157.382 28.0587 157.111 27.7647 156.766 27.55C156.421 27.3353 156.024 27.228 155.576 27.228C155.137 27.228 154.741 27.3353 154.386 27.55C154.041 27.7647 153.765 28.0587 153.56 28.432C153.364 28.8053 153.266 29.23 153.266 29.706C153.266 30.182 153.364 30.6113 153.56 30.994C153.765 31.3673 154.041 31.6613 154.386 31.876C154.741 32.0907 155.137 32.198 155.576 32.198ZM163.337 33.668C162.823 33.668 162.371 33.5793 161.979 33.402C161.596 33.2153 161.297 32.9633 161.083 32.646C160.868 32.3193 160.761 31.9367 160.761 31.498C160.761 31.0873 160.849 30.7187 161.027 30.392C161.213 30.0653 161.498 29.79 161.881 29.566C162.263 29.342 162.744 29.1833 163.323 29.09L165.955 28.656V29.902L163.631 30.308C163.211 30.3827 162.903 30.518 162.707 30.714C162.511 30.9007 162.413 31.1433 162.413 31.442C162.413 31.7313 162.52 31.9693 162.735 32.156C162.959 32.3333 163.243 32.422 163.589 32.422C164.018 32.422 164.391 32.3287 164.709 32.142C165.035 31.9553 165.287 31.708 165.465 31.4C165.642 31.0827 165.731 30.7327 165.731 30.35V28.404C165.731 28.0307 165.591 27.7273 165.311 27.494C165.04 27.2513 164.676 27.13 164.219 27.13C163.799 27.13 163.43 27.242 163.113 27.466C162.805 27.6807 162.576 27.9607 162.427 28.306L161.111 27.648C161.251 27.2747 161.479 26.948 161.797 26.668C162.114 26.3787 162.483 26.1547 162.903 25.996C163.332 25.8373 163.785 25.758 164.261 25.758C164.858 25.758 165.385 25.87 165.843 26.094C166.309 26.318 166.669 26.6307 166.921 27.032C167.182 27.424 167.313 27.8813 167.313 28.404V33.5H165.801V32.128L166.123 32.17C165.945 32.478 165.717 32.744 165.437 32.968C165.166 33.192 164.853 33.3647 164.499 33.486C164.153 33.6073 163.766 33.668 163.337 33.668ZM172.662 33.668C171.934 33.668 171.281 33.4953 170.702 33.15C170.133 32.7953 169.68 32.3193 169.344 31.722C169.018 31.1247 168.854 30.4527 168.854 29.706C168.854 28.9593 169.022 28.2873 169.358 27.69C169.694 27.0927 170.147 26.6213 170.716 26.276C171.286 25.9307 171.93 25.758 172.648 25.758C173.255 25.758 173.792 25.8793 174.258 26.122C174.725 26.3647 175.094 26.7007 175.364 27.13L175.126 27.494V22.902H176.694V33.5H175.196V31.96L175.378 32.254C175.117 32.7113 174.744 33.0613 174.258 33.304C173.773 33.5467 173.241 33.668 172.662 33.668ZM172.816 32.198C173.255 32.198 173.647 32.0907 173.992 31.876C174.347 31.6613 174.622 31.3673 174.818 30.994C175.024 30.6113 175.126 30.182 175.126 29.706C175.126 29.23 175.024 28.8053 174.818 28.432C174.622 28.0587 174.347 27.7647 173.992 27.55C173.647 27.3353 173.255 27.228 172.816 27.228C172.378 27.228 171.981 27.3353 171.626 27.55C171.272 27.7647 170.996 28.0587 170.8 28.432C170.604 28.8053 170.506 29.23 170.506 29.706C170.506 30.182 170.604 30.6113 170.8 30.994C170.996 31.3673 171.267 31.6613 171.612 31.876C171.967 32.0907 172.368 32.198 172.816 32.198ZM180.218 33.5L183.886 23.07H185.93L189.598 33.5H187.834L187.036 31.162H182.794L181.982 33.5H180.218ZM183.27 29.692H186.532L184.684 24.232H185.146L183.27 29.692ZM190.682 36.3V25.926H192.194V27.494L192.012 27.13C192.292 26.7007 192.665 26.3647 193.132 26.122C193.598 25.8793 194.13 25.758 194.728 25.758C195.446 25.758 196.09 25.9307 196.66 26.276C197.238 26.6213 197.691 27.0927 198.018 27.69C198.354 28.2873 198.522 28.9593 198.522 29.706C198.522 30.4527 198.354 31.1247 198.018 31.722C197.691 32.3193 197.243 32.7953 196.674 33.15C196.104 33.4953 195.456 33.668 194.728 33.668C194.14 33.668 193.603 33.5467 193.118 33.304C192.642 33.0613 192.273 32.7113 192.012 32.254L192.264 31.96V36.3H190.682ZM194.574 32.198C195.022 32.198 195.418 32.0907 195.764 31.876C196.109 31.6613 196.38 31.3673 196.576 30.994C196.781 30.6113 196.884 30.182 196.884 29.706C196.884 29.23 196.781 28.8053 196.576 28.432C196.38 28.0587 196.109 27.7647 195.764 27.55C195.418 27.3353 195.022 27.228 194.574 27.228C194.135 27.228 193.738 27.3353 193.384 27.55C193.038 27.7647 192.763 28.0587 192.558 28.432C192.362 28.8053 192.264 29.23 192.264 29.706C192.264 30.182 192.362 30.6113 192.558 30.994C192.763 31.3673 193.038 31.6613 193.384 31.876C193.738 32.0907 194.135 32.198 194.574 32.198ZM200.061 36.3V25.926H201.573V27.494L201.391 27.13C201.671 26.7007 202.044 26.3647 202.511 26.122C202.977 25.8793 203.509 25.758 204.107 25.758C204.825 25.758 205.469 25.9307 206.039 26.276C206.617 26.6213 207.07 27.0927 207.397 27.69C207.733 28.2873 207.901 28.9593 207.901 29.706C207.901 30.4527 207.733 31.1247 207.397 31.722C207.07 32.3193 206.622 32.7953 206.053 33.15C205.483 33.4953 204.835 33.668 204.107 33.668C203.519 33.668 202.982 33.5467 202.497 33.304C202.021 33.0613 201.652 32.7113 201.391 32.254L201.643 31.96V36.3H200.061ZM203.953 32.198C204.401 32.198 204.797 32.0907 205.143 31.876C205.488 31.6613 205.759 31.3673 205.955 30.994C206.16 30.6113 206.263 30.182 206.263 29.706C206.263 29.23 206.16 28.8053 205.955 28.432C205.759 28.0587 205.488 27.7647 205.143 27.55C204.797 27.3353 204.401 27.228 203.953 27.228C203.514 27.228 203.117 27.3353 202.763 27.55C202.417 27.7647 202.142 28.0587 201.937 28.432C201.741 28.8053 201.643 29.23 201.643 29.706C201.643 30.182 201.741 30.6113 201.937 30.994C202.142 31.3673 202.417 31.6613 202.763 31.876C203.117 32.0907 203.514 32.198 203.953 32.198Z" fill="white"/>
</svg>
