<svg width="48" height="48" viewBox="0 0 48 48" fill="none" xmlns="http://www.w3.org/2000/svg">
<rect width="48" height="48" rx="24" fill="#2286FE"/>
<path d="M25.0281 14.0005C26.1535 14.0023 26.7238 14.0083 27.2166 14.023L27.4107 14.0293C27.6349 14.0373 27.8561 14.0473 28.1228 14.0598C29.1869 14.109 29.9128 14.2773 30.5503 14.5248C31.2094 14.779 31.7661 15.1223 32.3219 15.6781C32.8769 16.234 33.2203 16.7923 33.4753 17.4498C33.7219 18.0865 33.8903 18.8131 33.9403 19.8773C33.9522 20.144 33.9618 20.3652 33.9697 20.5894L33.976 20.7835C33.9906 21.2762 33.9973 21.8466 33.9994 22.9721L34.0002 23.7177C34.0003 23.8088 34.0003 23.9028 34.0003 23.9998L34.0002 24.2819L33.9996 25.0276C33.9977 26.153 33.9918 26.7234 33.9771 27.2161L33.9707 27.4102C33.9628 27.6345 33.9528 27.8557 33.9403 28.1223C33.8911 29.1865 33.7219 29.9123 33.4753 30.5498C33.2211 31.209 32.8769 31.7657 32.3219 32.3215C31.7661 32.8765 31.2069 33.2198 30.5503 33.4748C29.9128 33.7215 29.1869 33.8898 28.1228 33.9398C27.8561 33.9517 27.6349 33.9614 27.4107 33.9692L27.2166 33.9755C26.7238 33.9902 26.1535 33.9968 25.0281 33.999L24.2824 33.9998C24.1913 33.9998 24.0973 33.9998 24.0003 33.9998H23.7182L22.9725 33.9991C21.8471 33.9973 21.2767 33.9913 20.784 33.9766L20.5899 33.9703C20.3656 33.9623 20.1444 33.9523 19.8778 33.9398C18.8136 33.8907 18.0886 33.7215 17.4503 33.4748C16.7919 33.2207 16.2344 32.8765 15.6786 32.3215C15.1228 31.7657 14.7803 31.2065 14.5253 30.5498C14.2778 29.9123 14.1103 29.1865 14.0603 28.1223C14.0484 27.8557 14.0387 27.6345 14.0309 27.4102L14.0246 27.2161C14.0099 26.7234 14.0033 26.153 14.0011 25.0276L14.001 22.9721C14.0028 21.8466 14.0088 21.2762 14.0235 20.7835L14.0298 20.5894C14.0378 20.3652 14.0478 20.144 14.0603 19.8773C14.1094 18.8123 14.2778 18.0873 14.5253 17.4498C14.7794 16.7915 15.1228 16.234 15.6786 15.6781C16.2344 15.1223 16.7928 14.7798 17.4503 14.5248C18.0878 14.2773 18.8128 14.1098 19.8778 14.0598C20.1444 14.0479 20.3656 14.0382 20.5899 14.0304L20.784 14.0241C21.2767 14.0094 21.8471 14.0028 22.9725 14.0006L25.0281 14.0005ZM24.0003 18.9998C21.2374 18.9998 19.0003 21.2393 19.0003 23.9998C19.0003 26.7627 21.2398 28.9998 24.0003 28.9998C26.7632 28.9998 29.0003 26.7603 29.0003 23.9998C29.0003 21.2369 26.7607 18.9998 24.0003 18.9998ZM24.0003 20.9998C25.6572 20.9998 27.0003 22.3425 27.0003 23.9998C27.0003 25.6567 25.6576 26.9998 24.0003 26.9998C22.3434 26.9998 21.0003 25.6572 21.0003 23.9998C21.0003 22.3429 22.3429 20.9998 24.0003 20.9998ZM29.2503 17.4998C28.561 17.4998 28.0003 18.0597 28.0003 18.7489C28.0003 19.4382 28.5602 19.999 29.2503 19.999C29.9395 19.999 30.5003 19.4391 30.5003 18.7489C30.5003 18.0597 29.9386 17.4989 29.2503 17.4998Z" fill="white"/>
</svg>
