<svg width="25" height="25" viewBox="0 0 25 25" fill="none" xmlns="http://www.w3.org/2000/svg">
<path d="M4.10972 2.31396L14.293 12.5L4.11082 22.6864C3.91776 22.6048 3.74866 22.462 3.63555 22.2667C3.5474 22.1144 3.50098 21.9416 3.50098 21.7656V3.23453C3.50098 2.82109 3.75188 2.46625 4.10972 2.31396ZM15 13.207L17.302 15.509L6.36498 21.842L15 13.207ZM18.199 10.009L21.0061 11.6347C21.4841 11.9114 21.6473 12.5232 21.3705 13.0011C21.283 13.1523 21.1574 13.278 21.0061 13.3655L18.198 14.991L15.707 12.5L18.199 10.009ZM6.36498 3.15796L17.303 9.48996L15 11.793L6.36498 3.15796Z" fill="white"/>
</svg>
