<svg width="92" height="92" viewBox="0 0 92 92" fill="none" xmlns="http://www.w3.org/2000/svg">
<rect width="92" height="92" rx="46" fill="#2286FE" fill-opacity="0.1"/>
<path d="M46 26C57.0456 26 66 34.9543 66 46C66 57.0456 57.0456 66 46 66C34.9543 66 26 57.0456 26 46C26 34.9543 34.9543 26 46 26ZM54.0086 47.7554C53.3178 46.7066 52.8194 45.9492 50.9244 46.2496C47.3434 46.818 46.9464 47.4448 46.7754 48.475L46.7272 48.7886L46.6786 49.1194C46.4832 50.4856 46.4906 51.0024 47.1178 51.6616C49.6482 54.3164 51.164 56.23 51.6232 57.3492C51.8474 57.8968 52.4238 59.5502 52.0272 61.1854C54.4744 60.2132 56.6312 58.6664 58.3306 56.7118C58.551 55.9642 58.7102 55.0332 58.7102 53.9036V53.6944C58.7102 51.8494 58.7102 51.008 57.4062 50.2628C56.856 49.9502 56.4454 49.762 56.1164 49.6128C55.382 49.2788 54.8958 49.0594 54.2396 48.0998C54.1614 47.9856 54.085 47.8716 54.0086 47.7554ZM46 29.6667C41.3652 29.6667 37.1812 31.5972 34.2084 34.6979C34.5623 34.9437 34.8707 35.2891 35.0826 35.7651C35.4906 36.6806 35.4906 37.6224 35.4906 38.4553C35.4898 39.1124 35.4888 39.7344 35.6998 40.186C35.9889 40.8027 37.2328 41.0645 38.331 41.2947C38.7233 41.3773 39.1279 41.4617 39.4959 41.5635C40.5081 41.8447 41.2911 42.753 41.9188 43.4824C42.1792 43.7862 42.5638 44.2326 42.7566 44.3434C42.8572 44.2712 43.18 43.9216 43.3398 43.347C43.4614 42.9094 43.4268 42.5194 43.2478 42.3086C42.1296 40.9889 42.1904 38.4464 42.536 37.5099C43.0804 36.0321 44.781 36.1412 46.024 36.2219C46.4876 36.2518 46.9252 36.2805 47.2514 36.2395C48.4964 36.0833 48.8792 34.1908 49.15 33.82C49.7342 33.0196 51.5214 31.8142 52.6316 31.0691C50.605 30.1676 48.361 29.6667 46 29.6667Z" fill="#2286FE"/>
</svg>
